<svg xmlns="http://www.w3.org/2000/svg" viewBox="0 0 85.04 85.04"><defs><style>.cls-1{fill:#02232f;}.cls-2{fill:#eb594d;}</style></defs><g id="Warstwa_3" data-name="Warstwa 3"><rect class="cls-1" width="85.04" height="85.04"/><path class="cls-2" d="M42.27,8.48A33.79,33.79,0,1,0,76.06,42.27,33.79,33.79,0,0,0,42.27,8.48Zm3.86,51.85v4.86H41.07V60.6a21.88,21.88,0,0,1-11.72-4.73l3.77-5.14c3.06,2.38,6,3.85,9.52,3.85,3.76,0,5.53-1.77,5.53-4.13,0-2.9-3.73-4.19-7.41-5.59-4.52-1.7-9.69-4.3-9.69-10.06,0-5.29,3.78-9.28,10-10.13V20h5.06V24.7a19.13,19.13,0,0,1,8.95,3.92l-3.71,5c-2.41-1.76-4.84-3-7.55-3-3.47,0-5.11,1.66-5.11,3.82,0,2.72,3.48,3.76,7.22,5.14,4.66,1.74,9.88,4,9.88,10.42C55.81,55,52.44,59.16,46.13,60.33Z"/></g></svg>